<svg xmlns="http://www.w3.org/2000/svg" width="1200" height="420" viewBox="0 0 1200 420">
<defs><linearGradient id="g2" x1="0" y1="0" x2="1" y2="0"><stop offset="0" stop-color="#0EA5B7"/><stop offset="1" stop-color="#FF5A2B"/></linearGradient></defs>
<rect width="1200" height="420" fill="#151A2B"/>
<line x1="0" y1="0" x2="0" y2="420" stroke="rgba(255,255,255,0.05)" stroke-width="1"/><line x1="100" y1="0" x2="100" y2="420" stroke="rgba(255,255,255,0.05)" stroke-width="1"/><line x1="200" y1="0" x2="200" y2="420" stroke="rgba(255,255,255,0.05)" stroke-width="1"/><line x1="300" y1="0" x2="300" y2="420" stroke="rgba(255,255,255,0.05)" stroke-width="1"/><line x1="400" y1="0" x2="400" y2="420" stroke="rgba(255,255,255,0.05)" stroke-width="1"/><line x1="500" y1="0" x2="500" y2="420" stroke="rgba(255,255,255,0.05)" stroke-width="1"/><line x1="600" y1="0" x2="600" y2="420" stroke="rgba(255,255,255,0.05)" stroke-width="1"/><line x1="700" y1="0" x2="700" y2="420" stroke="rgba(255,255,255,0.05)" stroke-width="1"/><line x1="800" y1="0" x2="800" y2="420" stroke="rgba(255,255,255,0.05)" stroke-width="1"/><line x1="900" y1="0" x2="900" y2="420" stroke="rgba(255,255,255,0.05)" stroke-width="1"/><line x1="1000" y1="0" x2="1000" y2="420" stroke="rgba(255,255,255,0.05)" stroke-width="1"/><line x1="1100" y1="0" x2="1100" y2="420" stroke="rgba(255,255,255,0.05)" stroke-width="1"/><line x1="1200" y1="0" x2="1200" y2="420" stroke="rgba(255,255,255,0.05)" stroke-width="1"/><line x1="0" y1="0" x2="1200" y2="0" stroke="rgba(255,255,255,0.05)" stroke-width="1"/><line x1="0" y1="90" x2="1200" y2="90" stroke="rgba(255,255,255,0.05)" stroke-width="1"/><line x1="0" y1="180" x2="1200" y2="180" stroke="rgba(255,255,255,0.05)" stroke-width="1"/><line x1="0" y1="270" x2="1200" y2="270" stroke="rgba(255,255,255,0.05)" stroke-width="1"/><line x1="0" y1="360" x2="1200" y2="360" stroke="rgba(255,255,255,0.05)" stroke-width="1"/><line x1="0" y1="450" x2="1200" y2="450" stroke="rgba(255,255,255,0.05)" stroke-width="1"/>
<rect x="660" y="90.30000000000001" width="102.00000000000001" height="54.6" rx="10" fill="#7C4DF0" opacity="0.9"/><rect x="788.4" y="90.30000000000001" width="102.00000000000001" height="54.6" rx="10" fill="#FFFFFF" opacity="0.07"/><rect x="916.8" y="90.30000000000001" width="102.00000000000001" height="54.6" rx="10" fill="#FFFFFF" opacity="0.07"/><rect x="1045.2" y="90.30000000000001" width="102.00000000000001" height="54.6" rx="10" fill="#FFFFFF" opacity="0.07"/><rect x="660" y="170.10000000000002" width="102.00000000000001" height="54.6" rx="10" fill="#FFFFFF" opacity="0.07"/><rect x="788.4" y="170.10000000000002" width="102.00000000000001" height="54.6" rx="10" fill="#FFFFFF" opacity="0.07"/><rect x="916.8" y="170.10000000000002" width="102.00000000000001" height="54.6" rx="10" fill="#FFFFFF" opacity="0.07"/><rect x="1045.2" y="170.10000000000002" width="102.00000000000001" height="54.6" rx="10" fill="#FFFFFF" opacity="0.07"/><rect x="660" y="249.9" width="102.00000000000001" height="54.6" rx="10" fill="#FFFFFF" opacity="0.07"/><rect x="788.4" y="249.9" width="102.00000000000001" height="54.6" rx="10" fill="#FFFFFF" opacity="0.07"/><rect x="916.8" y="249.9" width="102.00000000000001" height="54.6" rx="10" fill="#FFFFFF" opacity="0.07"/><rect x="1045.2" y="249.9" width="102.00000000000001" height="54.6" rx="10" fill="#7C4DF0" opacity="0.9"/>
<rect x="0" y="414" width="1200" height="6" fill="url(#g2)"/>
<text x="48" y="386" font-family="SF Mono,Consolas,monospace" font-size="17" fill="#8FA0BE" letter-spacing="2">FIG · tech-notes</text>
</svg>
