<svg xmlns="http://www.w3.org/2000/svg" width="1200" height="630" viewBox="0 0 1200 630">
  <defs>
    <linearGradient id="eg" x1="0" y1="0" x2="1" y2="1">
      <stop offset="0" stop-color="#0EA5B7"/><stop offset="0.5" stop-color="#7C4DF0"/><stop offset="1" stop-color="#FF5A2B"/>
    </linearGradient>
  </defs>
  <rect width="1200" height="630" fill="#151A2B"/>
  <line x1="0" y1="0" x2="0" y2="630" stroke="rgba(255,255,255,0.045)" stroke-width="1"/><line x1="100" y1="0" x2="100" y2="630" stroke="rgba(255,255,255,0.045)" stroke-width="1"/><line x1="200" y1="0" x2="200" y2="630" stroke="rgba(255,255,255,0.045)" stroke-width="1"/><line x1="300" y1="0" x2="300" y2="630" stroke="rgba(255,255,255,0.045)" stroke-width="1"/><line x1="400" y1="0" x2="400" y2="630" stroke="rgba(255,255,255,0.045)" stroke-width="1"/><line x1="500" y1="0" x2="500" y2="630" stroke="rgba(255,255,255,0.045)" stroke-width="1"/><line x1="600" y1="0" x2="600" y2="630" stroke="rgba(255,255,255,0.045)" stroke-width="1"/><line x1="700" y1="0" x2="700" y2="630" stroke="rgba(255,255,255,0.045)" stroke-width="1"/><line x1="800" y1="0" x2="800" y2="630" stroke="rgba(255,255,255,0.045)" stroke-width="1"/><line x1="900" y1="0" x2="900" y2="630" stroke="rgba(255,255,255,0.045)" stroke-width="1"/><line x1="1000" y1="0" x2="1000" y2="630" stroke="rgba(255,255,255,0.045)" stroke-width="1"/><line x1="1100" y1="0" x2="1100" y2="630" stroke="rgba(255,255,255,0.045)" stroke-width="1"/><line x1="1200" y1="0" x2="1200" y2="630" stroke="rgba(255,255,255,0.045)" stroke-width="1"/><line x1="0" y1="0" x2="1200" y2="0" stroke="rgba(255,255,255,0.045)" stroke-width="1"/><line x1="0" y1="90" x2="1200" y2="90" stroke="rgba(255,255,255,0.045)" stroke-width="1"/><line x1="0" y1="180" x2="1200" y2="180" stroke="rgba(255,255,255,0.045)" stroke-width="1"/><line x1="0" y1="270" x2="1200" y2="270" stroke="rgba(255,255,255,0.045)" stroke-width="1"/><line x1="0" y1="360" x2="1200" y2="360" stroke="rgba(255,255,255,0.045)" stroke-width="1"/><line x1="0" y1="450" x2="1200" y2="450" stroke="rgba(255,255,255,0.045)" stroke-width="1"/><line x1="0" y1="540" x2="1200" y2="540" stroke="rgba(255,255,255,0.045)" stroke-width="1"/><line x1="0" y1="630" x2="1200" y2="630" stroke="rgba(255,255,255,0.045)" stroke-width="1"/>
  <rect x="0" y="0" width="1200" height="8" fill="url(#eg)"/>
  <text x="96" y="88" font-family="SF Mono,Consolas,monospace" font-size="22" fill="#8FA0BE" letter-spacing="4">realtime · growth</text>
  <text x="1104" y="88" font-family="SF Mono,Consolas,monospace" font-size="22" fill="#FF7A45" text-anchor="end">▲ 218%</text>
  <rect x="96" y="320" width="62" height="150" rx="10" fill="#0EA5B7"/>
  <rect x="182" y="250" width="62" height="220" rx="10" fill="#0EA5B7"/>
  <rect x="268" y="280" width="62" height="190" rx="10" fill="#7C4DF0"/>
  <rect x="354" y="180" width="62" height="290" rx="10" fill="#7C4DF0"/>
  <rect x="440" y="220" width="62" height="250" rx="10" fill="#FF5A2B"/>
  <rect x="526" y="115" width="62" height="355" rx="10" fill="#FF5A2B"/>
  <rect x="612" y="50" width="62" height="420" rx="10" fill="#FFB020"/>
  <g font-family="Inter,'PingFang SC',sans-serif">
    <rect x="96" y="512" width="300" height="76" rx="14" fill="rgba(255,255,255,0.07)"/>
    <text x="126" y="558" font-size="30" font-weight="800" fill="#0EA5B7">38ms</text>
    <text x="126" y="580" font-size="15" fill="#93A3C0">平均响应</text>
    <rect x="450" y="512" width="300" height="76" rx="14" fill="rgba(255,255,255,0.07)"/>
    <text x="480" y="558" font-size="30" font-weight="800" fill="#A78BFA">3.4×</text>
    <text x="480" y="580" font-size="15" fill="#93A3C0">交付提速</text>
    <rect x="804" y="512" width="300" height="76" rx="14" fill="rgba(255,255,255,0.07)"/>
    <text x="834" y="558" font-size="30" font-weight="800" fill="#FF7A45">+218%</text>
    <text x="834" y="580" font-size="15" fill="#93A3C0">业务增长</text>
  </g>
</svg>
